# xmcd
#
# Track frame offsets:
#   150
#   13967
#   24855
#   38892
#   49485
#   60180
#   79212
#   91680
#   105100
#   130927
#   145820
#   156655
#   168450
#
# Disc length: 2465 seconds
#
# Revision: 0
# Processed by: cddbd v1.5.1PL0 Copyright (c) Steve Scherf et al.
# Submitted via: uFREEDB ActiveX Control 1.5
#
DISCID=a0099f0d
DTITLE=Renato Teixeira - O Melhor de Renato Teixeira
DYEAR=1900
DGENRE=UnClassifiable
TTITLE0=Fascinação
TTITLE1=Marchando a frente
TTITLE2=Chalana
TTITLE3=Ao Gosto do Coração
TTITLE4=Pé de Cedro
TTITLE5=Nas Asas do Vento
TTITLE6=Olhos Profundos
TTITLE7=Terra Mar e Ar
TTITLE8=Siriema do Mato Grosso
TTITLE9=João Alegre
TTITLE10=O Galo de Campinas
TTITLE11=Paulistano no Interior
TTITLE12=Sonhos Guaranis
EXTD=
EXTT0=
EXTT1=
EXTT2=
EXTT3=
EXTT4=
EXTT5=
EXTT6=
EXTT7=
EXTT8=
EXTT9=
EXTT10=
EXTT11=
EXTT12=
PLAYORDER=
